<svg width="96" height="96" viewBox="0 0 96 96" fill="none" xmlns="http://www.w3.org/2000/svg">
<path d="M64.1999 21C68.6182 21 72.1999 17.4183 72.1999 13C72.1999 8.58172 68.6182 5 64.1999 5C59.7817 5 56.2 8.58172 56.2 13C56.2 17.4183 59.7817 21 64.1999 21Z" fill="white"/>
<path d="M83.6 24C81.6 23 79.2 23.7 78.2 25.7L74.7 32.3L59.2999 22.6C58.6999 22.2 58 22 57.2 22H40.2C38.7 22 37.4 22.8 36.7 24.1L30.2 36.1C29.1 38 29.8999 40.5 31.7999 41.5C32.3999 41.8 33.1 42 33.7 42C35.1 42 36.5 41.2 37.2 39.9L42.5999 30H48.5L30.7999 63H14.2C12 63 10.2 64.8 10.2 67C10.2 69.2 12 71 14.2 71H33.2C34.7 71 36 70.2 36.7 68.9L43.7 56L55.2 66.7L54.2999 86.8C54.0999 89 55.8 90.9 58 91C58.1 91 58.1 91 58.2 91C60.3 91 62.1 89.3 62.2 87.2L63.2 65.2C63.3 64 62.8 62.9 61.9 62.1L52.2 53.1L62.4 34.1L74 41.4C74.9 42 76.1 42.2 77.2 41.9C78.3 41.6 79.2 40.9 79.7 39.9L85.2 29.4C86.3 27.5 85.6 25.1 83.6 24Z" fill="white"/>
</svg>
