<svg width="116" height="107" viewBox="0 0 116 107" fill="none" xmlns="http://www.w3.org/2000/svg">
<path d="M39.9001 60.66C44.2189 60.66 47.7201 57.1589 47.7201 52.84C47.7201 48.5212 44.2189 45.02 39.9001 45.02C35.5812 45.02 32.0801 48.5212 32.0801 52.84C32.0801 57.1589 35.5812 60.66 39.9001 60.66Z" fill="white"/>
<path d="M76.1 60.66C80.4189 60.66 83.92 57.1589 83.92 52.84C83.92 48.5212 80.4189 45.02 76.1 45.02C71.7812 45.02 68.28 48.5212 68.28 52.84C68.28 57.1589 71.7812 60.66 76.1 60.66Z" fill="white"/>
<path d="M48.9499 76.3299C53.2687 76.3299 56.7699 72.8288 56.7699 68.5099C56.7699 64.1911 53.2687 60.6899 48.9499 60.6899C44.631 60.6899 41.1299 64.1911 41.1299 68.5099C41.1299 72.8288 44.631 76.3299 48.9499 76.3299Z" fill="white"/>
<path d="M67.05 44.9901C71.3688 44.9901 74.87 41.489 74.87 37.1701C74.87 32.8512 71.3688 29.3501 67.05 29.3501C62.7311 29.3501 59.23 32.8512 59.23 37.1701C59.23 41.489 62.7311 44.9901 67.05 44.9901Z" fill="white"/>
<path d="M66.82 76.64C71.1389 76.64 74.64 73.1389 74.64 68.82C74.64 64.5011 71.1389 61 66.82 61C62.5011 61 59 64.5011 59 68.82C59 73.1389 62.5011 76.64 66.82 76.64Z" fill="white"/>
<path d="M48.9499 44.9901C53.2687 44.9901 56.7699 41.489 56.7699 37.1701C56.7699 32.8512 53.2687 29.3501 48.9499 29.3501C44.631 29.3501 41.1299 32.8512 41.1299 37.1701C41.1299 41.489 44.631 44.9901 48.9499 44.9901Z" fill="white"/>
<path d="M97.9799 57.0999C100.244 57.0999 102.08 55.2643 102.08 52.9999C102.08 50.7355 100.244 48.8999 97.9799 48.8999C95.7155 48.8999 93.8799 50.7355 93.8799 52.9999C93.8799 55.2643 95.7155 57.0999 97.9799 57.0999Z" fill="white"/>
<path d="M18.0199 57.0999C20.2843 57.0999 22.1199 55.2643 22.1199 52.9999C22.1199 50.7355 20.2843 48.8999 18.0199 48.8999C15.7556 48.8999 13.9199 50.7355 13.9199 52.9999C13.9199 55.2643 15.7556 57.0999 18.0199 57.0999Z" fill="white"/>
<path d="M3.47988 55.5999C4.91582 55.5999 6.07988 54.4358 6.07988 52.9999C6.07988 51.564 4.91582 50.3999 3.47988 50.3999C2.04394 50.3999 0.879883 51.564 0.879883 52.9999C0.879883 54.4358 2.04394 55.5999 3.47988 55.5999Z" fill="white"/>
<path d="M112.52 55.5999C113.956 55.5999 115.12 54.4358 115.12 52.9999C115.12 51.564 113.956 50.3999 112.52 50.3999C111.084 50.3999 109.92 51.564 109.92 52.9999C109.92 54.4358 111.084 55.5999 112.52 55.5999Z" fill="white"/>
<path d="M77.9899 22.47C80.2543 22.47 82.0899 20.6344 82.0899 18.37C82.0899 16.1057 80.2543 14.27 77.9899 14.27C75.7255 14.27 73.8899 16.1057 73.8899 18.37C73.8899 20.6344 75.7255 22.47 77.9899 22.47Z" fill="white"/>
<path d="M38.0099 91.73C40.2743 91.73 42.1099 89.8944 42.1099 87.63C42.1099 85.3657 40.2743 83.53 38.0099 83.53C35.7455 83.53 33.9099 85.3657 33.9099 87.63C33.9099 89.8944 35.7455 91.73 38.0099 91.73Z" fill="white"/>
<path d="M30.7399 102.81C32.1758 102.81 33.3399 101.646 33.3399 100.21C33.3399 98.7742 32.1758 97.6101 30.7399 97.6101C29.304 97.6101 28.1399 98.7742 28.1399 100.21C28.1399 101.646 29.304 102.81 30.7399 102.81Z" fill="white"/>
<path d="M85.2599 8.38994C86.6959 8.38994 87.8599 7.22588 87.8599 5.78994C87.8599 4.354 86.6959 3.18994 85.2599 3.18994C83.824 3.18994 82.6599 4.354 82.6599 5.78994C82.6599 7.22588 83.824 8.38994 85.2599 8.38994Z" fill="white"/>
<path d="M38.0099 22.47C40.2743 22.47 42.1099 20.6344 42.1099 18.37C42.1099 16.1057 40.2743 14.27 38.0099 14.27C35.7455 14.27 33.9099 16.1057 33.9099 18.37C33.9099 20.6344 35.7455 22.47 38.0099 22.47Z" fill="white"/>
<path d="M77.9899 91.73C80.2543 91.73 82.0899 89.8944 82.0899 87.63C82.0899 85.3657 80.2543 83.53 77.9899 83.53C75.7255 83.53 73.8899 85.3657 73.8899 87.63C73.8899 89.8944 75.7255 91.73 77.9899 91.73Z" fill="white"/>
<path d="M85.2599 102.81C86.6959 102.81 87.8599 101.646 87.8599 100.21C87.8599 98.7742 86.6959 97.6101 85.2599 97.6101C83.824 97.6101 82.6599 98.7742 82.6599 100.21C82.6599 101.646 83.824 102.81 85.2599 102.81Z" fill="white"/>
<path d="M30.7399 8.38994C32.1758 8.38994 33.3399 7.22588 33.3399 5.78994C33.3399 4.354 32.1758 3.18994 30.7399 3.18994C29.304 3.18994 28.1399 4.354 28.1399 5.78994C28.1399 7.22588 29.304 8.38994 30.7399 8.38994Z" fill="white"/>
<path d="M58 26.43C60.6068 26.43 62.72 24.3168 62.72 21.71C62.72 19.1032 60.6068 16.99 58 16.99C55.3932 16.99 53.28 19.1032 53.28 21.71C53.28 24.3168 55.3932 26.43 58 26.43Z" fill="white"/>
<path d="M58.23 6.46C60.0139 6.46 61.46 5.01388 61.46 3.23C61.46 1.44612 60.0139 0 58.23 0C56.4461 0 55 1.44612 55 3.23C55 5.01388 56.4461 6.46 58.23 6.46Z" fill="white"/>
<path d="M58 89.0101C60.6068 89.0101 62.72 86.8969 62.72 84.2901C62.72 81.6833 60.6068 79.5701 58 79.5701C55.3932 79.5701 53.28 81.6833 53.28 84.2901C53.28 86.8969 55.3932 89.0101 58 89.0101Z" fill="white"/>
<path d="M58 106.18C59.7839 106.18 61.23 104.734 61.23 102.95C61.23 101.166 59.7839 99.72 58 99.72C56.2161 99.72 54.77 101.166 54.77 102.95C54.77 104.734 56.2161 106.18 58 106.18Z" fill="white"/>
<path d="M30.8999 42.0799C33.5067 42.0799 35.6199 39.9667 35.6199 37.3599C35.6199 34.7531 33.5067 32.6399 30.8999 32.6399C28.2931 32.6399 26.1799 34.7531 26.1799 37.3599C26.1799 39.9667 28.2931 42.0799 30.8999 42.0799Z" fill="white"/>
<path d="M14.74 31.25C16.5239 31.25 17.97 29.8039 17.97 28.02C17.97 26.2362 16.5239 24.79 14.74 24.79C12.9561 24.79 11.51 26.2362 11.51 28.02C11.51 29.8039 12.9561 31.25 14.74 31.25Z" fill="white"/>
<path d="M85.0999 73.3599C87.7067 73.3599 89.8199 71.2467 89.8199 68.6399C89.8199 66.0331 87.7067 63.9199 85.0999 63.9199C82.4931 63.9199 80.3799 66.0331 80.3799 68.6399C80.3799 71.2467 82.4931 73.3599 85.0999 73.3599Z" fill="white"/>
<path d="M101.26 81.21C103.044 81.21 104.49 79.7639 104.49 77.98C104.49 76.1961 103.044 74.75 101.26 74.75C99.4762 74.75 98.03 76.1961 98.03 77.98C98.03 79.7639 99.4762 81.21 101.26 81.21Z" fill="white"/>
<path d="M30.8999 73.3599C33.5067 73.3599 35.6199 71.2467 35.6199 68.6399C35.6199 66.0331 33.5067 63.9199 30.8999 63.9199C28.2931 63.9199 26.1799 66.0331 26.1799 68.6399C26.1799 71.2467 28.2931 73.3599 30.8999 73.3599Z" fill="white"/>
<path d="M14.74 81.21C16.5239 81.21 17.97 79.7639 17.97 77.98C17.97 76.1961 16.5239 74.75 14.74 74.75C12.9561 74.75 11.51 76.1961 11.51 77.98C11.51 79.7639 12.9561 81.21 14.74 81.21Z" fill="white"/>
<path d="M85.0999 42.0799C87.7067 42.0799 89.8199 39.9667 89.8199 37.3599C89.8199 34.7531 87.7067 32.6399 85.0999 32.6399C82.4931 32.6399 80.3799 34.7531 80.3799 37.3599C80.3799 39.9667 82.4931 42.0799 85.0999 42.0799Z" fill="white"/>
<path d="M101.26 31.25C103.044 31.25 104.49 29.8039 104.49 28.02C104.49 26.2362 103.044 24.79 101.26 24.79C99.4762 24.79 98.03 26.2362 98.03 28.02C98.03 29.8039 99.4762 31.25 101.26 31.25Z" fill="white"/>
</svg>
