<svg width="48" height="48" viewBox="0 0 48 48" fill="none" xmlns="http://www.w3.org/2000/svg">
<path d="M24.37 47.104H24.369C17.987 47.103 4 41.536 4 25C4 11.767 13.42 1 24.998 1C37.167 1 46 11.093 46 25C46 29.752 42.987 38.84 38.263 38.84C36.721 38.84 35.275 37.869 33.964 35.954C32.964 34.493 31.892 33.655 31.024 33.655C30.581 33.655 30.168 33.884 29.796 34.337C28.743 35.621 27.976 38.782 28.98 43.803C29.123 44.518 28.961 45.186 28.511 45.735C27.585 46.866 25.748 47.104 24.37 47.104ZM24.998 3C14.522 3 6 12.869 6 25C6 40.04 18.614 45.103 24.368 45.104C25.899 45.104 26.724 44.762 26.965 44.468C27.013 44.41 27.049 44.349 27.019 44.197C26.05 39.351 26.51 35.192 28.249 33.07C29.008 32.145 29.967 31.656 31.023 31.656C32.127 31.656 33.82 32.206 35.613 34.825C36.242 35.744 37.213 36.841 38.262 36.841C40.978 36.84 44 29.783 44 25C44 12.252 36.008 3 24.998 3Z" fill="white"/>
<path d="M18.998 41C16.241 41 13.998 38.757 13.998 36C13.998 33.243 16.241 31 18.998 31C21.755 31 23.998 33.243 23.998 36C23.998 38.757 21.755 41 18.998 41ZM18.998 33C17.344 33 15.998 34.346 15.998 36C15.998 37.654 17.344 39 18.998 39C20.652 39 21.998 37.654 21.998 36C21.998 34.346 20.652 33 18.998 33Z" fill="white"/>
<path d="M13.0059 27H13.0019C10.7959 27 9.00293 25.206 9.00293 23C9.00193 21.933 9.41793 20.928 10.1729 20.172C10.9279 19.416 11.9339 19 13.0029 19C14.0729 19 15.0769 19.417 15.8319 20.174C16.5859 20.93 17.0009 21.934 16.9999 23.001C17.0029 24.065 16.5889 25.069 15.8339 25.826C15.0799 26.583 14.0749 27 13.0059 27ZM13.0059 21C12.4679 21 11.9659 21.208 11.5879 21.586C11.2099 21.963 11.0029 22.465 11.0029 22.999C11.0029 24.103 11.8989 25 12.9999 25L13.0059 26V25C13.5399 25 14.0419 24.792 14.4189 24.414C14.7949 24.037 15.0019 23.536 15.0009 23.003C15.0009 22.467 14.7939 21.965 14.4169 21.587C14.0389 21.208 13.5379 21 13.0059 21Z" fill="white"/>
<path d="M18.003 18H17.999C15.793 18 14 16.206 14 14C13.999 12.933 14.415 11.928 15.17 11.172C15.925 10.416 16.931 10 18 10C19.07 10 20.074 10.417 20.829 11.174C21.583 11.93 21.998 12.934 21.997 14.001C22 15.065 21.586 16.069 20.831 16.826C20.077 17.583 19.072 18 18.003 18ZM18.003 12C17.465 12 16.963 12.208 16.585 12.586C16.207 12.964 16 13.466 16 13.999C16 15.103 16.896 16 17.997 16L18.003 17V16C18.537 16 19.039 15.792 19.416 15.414C19.792 15.037 19.999 14.536 19.998 14.003C19.998 13.467 19.791 12.965 19.414 12.587C19.036 12.208 18.535 12 18.003 12Z" fill="white"/>
<path d="M27.0059 14H27.0019C24.7959 14 23.0029 12.206 23.0029 10C23.0019 8.933 23.4179 7.928 24.1729 7.172C24.9279 6.416 25.9339 6 27.0029 6C28.0729 6 29.0769 6.417 29.8319 7.174C30.5859 7.93 31.0009 8.934 30.9999 10.001C31.0029 11.065 30.5889 12.069 29.8339 12.826C29.0799 13.583 28.0749 14 27.0059 14ZM27.0059 8C26.4679 8 25.9659 8.208 25.5879 8.586C25.2099 8.963 25.0029 9.465 25.0029 9.999C25.0029 11.103 25.8989 12 26.9999 12L27.0059 13V12C27.5399 12 28.0419 11.792 28.4189 11.414C28.7949 11.037 29.0019 10.536 29.0009 10.003C29.0009 9.467 28.7939 8.965 28.4169 8.587C28.0389 8.208 27.5379 8 27.0059 8Z" fill="white"/>
<path d="M36.003 21H35.999C33.793 21 32 19.206 32 17C31.999 15.933 32.415 14.928 33.17 14.172C33.925 13.416 34.931 13 36 13C37.07 13 38.074 13.417 38.829 14.174C39.583 14.93 39.998 15.934 39.997 17.001C40 18.065 39.586 19.069 38.831 19.826C38.077 20.583 37.072 21 36.003 21ZM36.003 15C35.465 15 34.963 15.208 34.585 15.586C34.207 15.964 34 16.466 34 16.999C34 18.103 34.896 19 35.997 19L36.003 20V19C36.537 19 37.039 18.792 37.416 18.414C37.792 18.037 37.999 17.536 37.998 17.003C37.998 16.467 37.791 15.965 37.414 15.587C37.036 15.208 36.535 15 36.003 15Z" fill="white"/>
</svg>
