<svg width="20" height="18" viewBox="0 0 20 18" fill="none" xmlns="http://www.w3.org/2000/svg">
<path d="M17.599 3H15.276L14.562 0.985C14.34 0.319 13.719 0 13.017 0H6.983C6.281 0 5.66 0.319 5.438 0.985L4.724 3H2.401C0.905 3 0 4.247 0 5.743V15.513C0 17.009 0.905 18 2.401 18H17.598C19.095 18 20 17.009 20 15.513V5.743C20 4.247 19.095 3 17.599 3ZM19 15.513C19 16.411 18.497 17 17.599 17H2.401C1.503 17 1 16.411 1 15.513V5.743C1 4.846 1.503 4 2.401 4H5.115C5.349 4 5.556 3.908 5.63 3.687L6.468 1.272C6.542 1.05 6.749 1 6.983 1H13.017C13.251 1 13.458 1.078 13.532 1.301L14.37 3.722C14.444 3.943 14.651 4 14.885 4H17.599C18.497 4 19 4.846 19 5.743V15.513Z" fill="white"/>
<path d="M10 4.65796C7.00702 4.65796 4.57202 7.09296 4.57202 10.086C4.57202 13.079 7.00702 15.513 10 15.513C12.993 15.513 15.428 13.078 15.428 10.085C15.428 7.09196 12.993 4.65796 10 4.65796ZM10 14.428C7.60602 14.428 5.65802 12.48 5.65802 10.086C5.65802 7.69196 7.60602 5.74296 10 5.74296C12.394 5.74296 14.342 7.69096 14.342 10.085C14.342 12.479 12.394 14.428 10 14.428Z" fill="white"/>
</svg>
